<svg xmlns="http://www.w3.org/2000/svg" version="1.1" xmlns:xlink="http://www.w3.org/1999/xlink" xmlns:svgjs="http://svgjs.dev/svgjs" width="2000" height="2250" viewBox="0 0 2000 2250"><g transform="matrix(1,0,0,1,0,0)"><svg viewBox="0 0 320 360" data-background-color="#ffffff" preserveAspectRatio="xMidYMid meet" height="2250" width="2000" xmlns="http://www.w3.org/2000/svg" xmlns:xlink="http://www.w3.org/1999/xlink"><g id="tight-bounds" transform="matrix(1,0,0,1,0,0)"><svg viewBox="0 0 320 360" height="360" width="320"><g><svg></svg></g><g><svg viewBox="0 0 320 360" height="360" width="320"><g><path d="M160 42.18c72.417 0 131.943 56.114 137.63 127.014h22.37c-1.137-17.82-5.308-34.882-12.133-51.185-7.962-18.957-19.716-36.398-34.502-50.805-14.787-14.787-31.848-26.161-50.806-34.503-20.095-8.341-40.948-12.891-62.559-12.891-21.611 0-42.464 4.171-62.559 12.512-18.957 7.962-36.398 19.716-50.806 34.503-14.787 14.787-26.161 31.848-34.502 50.805-6.825 16.303-10.995 33.744-12.133 51.185h22.37c5.687-70.521 65.213-126.635 137.63-126.635zM160 318.199c-72.417 0-131.943-56.114-137.63-127.014h-22.37c1.137 17.82 5.308 34.882 12.133 51.185 7.962 18.957 19.716 36.398 34.502 50.805 14.787 14.787 31.848 26.161 50.806 34.503 19.716 8.341 40.569 12.512 62.559 12.512 21.991 0 42.464-4.171 62.559-12.512 18.957-7.962 36.398-19.716 50.806-34.503 14.787-14.787 26.161-31.848 34.502-50.805 6.825-16.303 10.995-33.744 12.133-51.185h-22.37c-5.687 70.9-65.213 127.014-137.63 127.014z" fill="#f32f7b" fill-rule="nonzero" stroke="none" stroke-width="1" stroke-linecap="butt" stroke-linejoin="miter" stroke-miterlimit="10" stroke-dasharray="" stroke-dashoffset="0" font-family="none" font-weight="none" font-size="none" text-anchor="none" style="mix-blend-mode: normal" data-fill-palette-color="tertiary"></path></g><g transform="matrix(1,0,0,1,56,111.74438687392055)"><svg viewBox="0 0 208 136.5112262521589" height="136.5112262521589" width="208"><g><svg viewBox="0 0 208 136.5112262521589" height="136.5112262521589" width="208"><g><svg viewBox="0 0 208 136.5112262521589" height="136.5112262521589" width="208"><g><svg viewBox="0 0 208 136.5112262521589" height="136.5112262521589" width="208"><g id="textblocktransform"><svg viewBox="0 0 208 136.5112262521589" height="136.5112262521589" width="208" id="textblock"><g><svg viewBox="0 0 208 136.5112262521589" height="136.5112262521589" width="208"><g transform="matrix(1,0,0,1,0,0)"><svg width="208" viewBox="-1.5 -37.75 57.9 38" height="136.5112262521589" data-palette-color="#f32f7b"><path d="M6.75-0.85L-1.5-0.3Q0.7-6.95 2.7-13.35L2.7-13.35Q3.55-16.05 4.45-19 5.35-21.95 6.25-24.85 7.15-27.75 7.93-30.45 8.7-33.15 9.3-35.45L9.3-35.45Q12.05-35.45 14.5-35.75 16.95-36.05 19.8-36.3L19.8-36.3Q19.65-35.2 19.48-33.83 19.3-32.45 19.07-30.95 18.85-29.45 18.6-27.85 18.35-26.25 18-23.75 17.65-21.25 17.05-17.5L17.05-17.5 17.7-17.5Q19.15-21.3 20.1-23.83 21.05-26.35 21.65-27.95 22.25-29.55 22.88-31.08 23.5-32.6 24.08-33.98 24.65-35.35 25.15-36.4L25.15-36.4Q26.4-36.5 27.5-36.65 28.6-36.8 29.7-36.98 30.8-37.15 31.93-37.33 33.05-37.5 34.4-37.75L34.4-37.75Q33.9-34.85 33.45-31.8 33-28.75 32.65-25.73 32.3-22.7 31.98-19.75 31.65-16.8 31.4-14.15L31.4-14.15Q30.8-7.95 30.35-2.05L30.35-2.05 21.65-0.5Q21.65-0.75 21.73-1.85 21.8-2.95 21.93-4.55 22.05-6.15 22.28-8.1 22.5-10.05 22.73-12 22.95-13.95 23.2-15.78 23.45-17.6 23.7-18.9L23.7-18.9 23.25-18.9Q22.55-16.8 21.7-14.48 20.85-12.15 19.98-9.75 19.1-7.35 18.25-5.05 17.4-2.75 16.75-0.65L16.75-0.65Q15-0.6 13.75-0.53 12.5-0.45 10.85-0.35L10.85-0.35 12.45-18.9 11.7-18.9Q11.6-18.25 11.2-16.73 10.8-15.2 10.28-13.23 9.75-11.25 9.15-9.13 8.55-7 8.03-5.18 7.5-3.35 7.15-2.18 6.8-1 6.75-0.85L6.75-0.85ZM56.4-25.55Q56.4-22.95 55.65-20.03 54.9-17.1 53.55-14.23 52.2-11.35 50.22-8.72 48.25-6.1 45.75-4.13 43.25-2.15 40.27-0.95 37.3 0.25 33.95 0.25L33.95 0.25Q33.25 0.25 32.55 0.18 31.85 0.1 31.15 0L31.15 0Q32.5-6.9 33.8-13.45L33.8-13.45Q34.3-16.2 34.85-19.18 35.4-22.15 35.9-25.05 36.4-27.95 36.87-30.6 37.35-33.25 37.65-35.4L37.65-35.4Q39.8-35.8 42-36.15 44.2-36.5 46.5-36.5L46.5-36.5Q49.2-36.5 51.07-35.65 52.95-34.8 54.12-33.3 55.3-31.8 55.85-29.8 56.4-27.8 56.4-25.55L56.4-25.55ZM44.6-29.45Q44.05-26.5 43.45-23.8 42.85-21.1 42.25-18.35 41.65-15.6 41.05-12.6 40.45-9.6 39.9-6.05L39.9-6.05Q41.1-6.85 42.22-8.22 43.35-9.6 44.35-11.4 45.35-13.2 46.17-15.2 47-17.2 47.6-19.1 48.2-21 48.52-22.65 48.85-24.3 48.85-25.5L48.85-25.5Q48.85-27.35 47.82-28.4 46.8-29.45 44.6-29.45L44.6-29.45Z" opacity="1" transform="matrix(1,0,0,1,0,0)" fill="#f32f7b" class="wordmark-text-0" data-fill-palette-color="primary" id="text-0"></path></svg></g></svg></g></svg></g></svg></g></svg></g></svg></g></svg></g></svg></g><defs></defs></svg><rect width="320" height="360" fill="none" stroke="none" visibility="hidden"></rect></g></svg></g></svg>